<svg width="63" height="67" viewBox="0 0 63 67" fill="none" xmlns="http://www.w3.org/2000/svg">
<path fill-rule="evenodd" clip-rule="evenodd" d="M51.0182 30.0525L51.0182 64.7543C51.0182 65.4958 50.3623 66.0975 49.554 66.0975H42.1004C41.2921 66.0975 40.6362 65.4958 40.6362 64.7538L40.6362 31.7317C40.6362 30.9902 41.2921 30.3884 42.1004 30.3884H43.9312L43.9312 12.0502C43.9312 11.3087 44.5871 10.7065 45.3953 10.7065L54.2982 10.7065C56.202 10.7065 57.5346 9.05413 58.3106 7.71086L49.7882 7.71086C48.98 7.71086 48.3241 7.1091 48.3241 6.36714V3.06247L26.0658 3.06247L8.40576 10.2231L31.3666 10.2231C32.1749 10.2231 32.8313 10.8248 32.8313 11.5663V12.8026H34.603C35.4113 12.8026 36.0672 13.4044 36.0672 14.1459C36.0672 14.8874 35.4113 15.4891 34.603 15.4891H32.8313V18.7406H34.603C35.4113 18.7406 36.0672 19.3428 36.0672 20.0843C36.0672 20.8258 35.4113 21.4275 34.603 21.4275H32.8313V24.679H34.603C35.4113 24.679 36.0672 25.2807 36.0672 26.0222C36.0672 26.7637 35.4113 27.3655 34.603 27.3655H32.8313V30.3884H34.0463C34.8546 30.3884 35.511 30.9902 35.511 31.7317L35.511 64.7538C35.511 65.4953 34.8546 66.0971 34.0463 66.0971H25.6262C24.8179 66.0971 24.162 65.4953 24.162 64.7538L24.162 44.4005C19.8331 42.4819 15.2353 41.1263 10.4995 40.3702C3.06072 39.255 1.09845 34.2575 1.09845 31.7722C1.09845 31.0302 1.75436 30.4284 2.56259 30.4284L29.9025 30.4284L29.9025 12.9637L1.46461 12.9637C0.761562 12.9783 0.147823 12.5322 -3.05176e-05 11.9022V11.62C0.00443649 11.0893 0.348766 10.61 0.878654 10.3978L25.1722 0.496569C25.3568 0.419642 25.5562 0.378219 25.7581 0.375488L49.7882 0.375488C50.5964 0.375488 51.2529 0.977248 51.2524 1.71875V5.02388L60.4778 4.93011C60.6361 4.92465 60.7958 4.94195 60.9481 4.98246C61.7241 5.19185 62.1692 5.93745 61.9424 6.64936C61.8546 6.95844 59.746 13.367 54.3131 13.367H46.8892V21.2127L55.0603 21.2127C60.9174 21.4949 62.001 28.2522 62.001 28.5344C62.0099 28.5963 62.0129 28.6596 62.0129 28.721C62.0069 29.4625 61.3451 30.0593 60.5368 30.0525L51.0182 30.0525ZM32.5823 35.7626V33.0757L4.30565 33.062C4.84745 34.5937 6.39941 36.9848 10.9828 37.6699C16.3308 38.5297 21.5042 40.1283 26.3293 42.4124C26.7996 42.6487 27.0924 43.103 27.0909 43.5946L27.0909 63.3838H32.5823V62.2012H30.8105C30.0018 62.2012 29.3459 61.5995 29.3459 60.858C29.3459 60.1165 30.0018 59.5147 30.8105 59.5147H32.5823V56.2633H30.8105C30.0018 56.2633 29.3459 55.6616 29.3459 54.9201C29.3459 54.1786 30.0018 53.5763 30.8105 53.5763H32.5823V50.3254H30.8105C30.0018 50.3254 29.3459 49.7237 29.3459 48.9822C29.3459 48.2402 30.0018 47.6384 30.8105 47.6384H32.5823L32.5823 44.3875H30.8105C30.0018 44.3875 29.3459 43.7857 29.3459 43.0438C29.3459 42.3023 30.0018 41.7005 30.8105 41.7005H32.5823V38.4496H30.8105C30.0018 38.4496 29.3459 37.8474 29.3459 37.1059C29.3459 36.3644 30.0018 35.7626 30.8105 35.7626H32.5823ZM46.8594 30.3887V23.8325L54.9577 23.8325C57.0807 23.9399 58.1499 25.8745 58.6625 27.312L49.5391 27.312C48.7309 27.312 48.075 27.9138 48.075 28.6558V30.335L46.8594 30.3887ZM43.565 33.0754L43.565 63.4105H48.0894L48.0894 33.0754H43.565Z" fill="#99FE03"/>
</svg>
