<svg width="61" height="68" viewBox="0 0 61 68" fill="none" xmlns="http://www.w3.org/2000/svg">
<path fill-rule="evenodd" clip-rule="evenodd" d="M19.3829 66.1777L19.3829 19.452L42.6004 19.452C43.373 19.452 44 18.8526 44 18.1135V2.18127C44 1.44213 43.373 0.842285 42.6004 0.842285L1.39964 0.842285C0.627014 0.842285 0 1.44213 0 2.18127L0 66.1777C0 66.9169 0.627014 67.5167 1.39964 67.5167L17.9832 67.5167C18.7558 67.5167 19.3829 66.9169 19.3829 66.1777ZM41.2007 3.51978V16.7743L18.5571 16.7743L4.77234 3.51978L41.2007 3.51978ZM2.79932 5.42102L2.79932 64.8391L16.5841 65.0265V60.608H13.1132C12.3406 60.608 11.7136 60.0086 11.7136 59.2694C11.7136 58.5303 12.3406 57.9305 13.1132 57.9305H16.5841V55.2529H13.1132C12.3406 55.2529 11.7136 54.6531 11.7136 53.914C11.7136 53.1748 12.3406 52.575 13.1132 52.575H16.5841V49.8975H10.1466C9.37394 49.8975 8.74693 49.2976 8.74693 48.5585C8.74693 47.8198 9.37394 47.2199 10.1466 47.2199H16.5841L16.5841 44.542H13.1132C12.3406 44.542 11.7136 43.9421 11.7136 43.2034C11.7136 42.4643 12.3406 41.8645 13.1132 41.8645H16.5841V39.1869H13.1132C12.3406 39.1869 11.7136 38.5871 11.7136 37.848C11.7136 37.1088 12.3406 36.509 13.1132 36.509H16.5841V33.8315H10.1466C9.37394 33.8315 8.74693 33.2316 8.74693 32.4925C8.74693 31.7533 9.37394 31.1539 10.1466 31.1539L16.5841 31.1539V28.476L13.1132 28.476C12.3406 28.476 11.7136 27.8761 11.7136 27.137C11.7136 26.3983 12.3406 25.7985 13.1132 25.7985L16.5841 25.7985V23.1205L13.1132 23.1205C12.3406 23.1205 11.7136 22.5211 11.7136 21.782C11.7136 21.0428 12.3406 20.443 13.1132 20.443L16.5841 20.443V18.609L2.79932 5.42102Z" fill="#99FE03"/>
<path fill-rule="evenodd" clip-rule="evenodd" d="M21 34.5711L21 34.5746L21 34.5848V34.5711ZM21 34.5746C21.0037 34.8614 21.102 35.1403 21.2806 35.3696L31.2037 48.4164C31.2037 48.4164 31.316 48.4976 31.3721 48.5517C31.3939 48.5728 31.4094 48.5939 31.4242 48.6142C31.4475 48.646 31.4694 48.6759 31.5124 48.7008L50.9509 62.492C52.395 63.7304 54.4512 64.0524 56.2278 63.3176C57.1639 62.8695 57.9653 62.1998 58.558 61.3687L59.7367 59.7853C60.5044 58.8487 60.9467 57.7024 61 56.5098C60.9424 54.8508 60.033 53.328 58.5718 52.4496L39.0772 38.7125C38.9973 38.668 38.9116 38.6327 38.8246 38.6043C38.8246 38.6043 38.7404 38.6043 38.6981 38.5231L22.8527 33.2987C22.1187 33.0593 21.3215 33.4395 21.0747 34.1473C21.0263 34.2849 21.0012 34.429 21 34.5746ZM56.9155 54.6695C57.6299 55.0576 58.1099 55.7506 58.2069 56.5368C58.1479 57.1556 57.8939 57.7413 57.4773 58.2152L56.2981 59.7582C55.9866 60.2155 55.5628 60.5934 55.0629 60.8544L55.0533 60.8585C54.7911 60.9712 54.0208 61.3021 52.6209 60.3132L51.358 59.4197L53.5051 56.6047L55.6384 53.776L56.9155 54.6695ZM52.0597 53.8981L53.3792 52.1657L38.5858 41.7036L34.2911 47.3339L49.0845 57.796L50.4035 56.0769L38.9792 47.9564C38.9297 47.9252 38.8836 47.8926 38.8389 47.8559C38.2438 47.3784 38.1634 46.5244 38.6591 45.9506C39.1542 45.3767 40.0399 45.2983 40.6349 45.7772L52.0597 53.8981ZM36.0178 40.4854L32.3263 45.3308L30.0388 42.326L32.3543 39.2809L36.0178 40.4854ZM28.2984 40.0386L29.5756 38.3607L26.179 37.2507L28.2984 40.0386Z" fill="#99FE03"/>
</svg>
