<svg width="62" height="65" viewBox="0 0 62 65" fill="none" xmlns="http://www.w3.org/2000/svg">
<path fill-rule="evenodd" clip-rule="evenodd" d="M60.6253 30.7284L57.9018 29.6363V27.8998C57.9401 17.2416 50.7284 7.73221 39.9391 4.21502V1.76765C39.9391 1.0412 39.3068 0.45166 38.5283 0.45166H23.4296C22.6511 0.45166 22.0189 1.0412 22.0189 1.76765V4.22795C11.2295 7.74514 4.01785 17.2545 4.05611 27.9127V29.6626L1.36081 30.7284C0.838586 30.934 0.5 31.4116 0.5 31.9392V38.8473C0.5 39.5733 1.13222 40.1629 1.91125 40.1629H3.74574V42.7949C3.74574 43.5209 4.37748 44.1104 5.15651 44.1104H10.2224C10.7035 45.7578 11.4103 47.3422 12.3247 48.821L8.74084 52.1634C8.19327 52.6762 8.19327 53.5052 8.74084 54.0185L14.7378 59.6107C15.2878 60.1213 16.1768 60.1213 16.7273 59.6107L20.3111 56.2688C21.8931 57.1214 23.5865 57.7792 25.3488 58.2291V62.9531C25.3488 63.6791 25.981 64.2686 26.76 64.2686H35.2261C36.0051 64.2686 36.6374 63.6791 36.6374 62.9531V58.2291C38.4039 57.7805 40.1026 57.1227 41.6889 56.2688L45.2732 59.6107C45.8232 60.1213 46.7122 60.1213 47.2626 59.6107L53.2596 54.0185C53.8072 53.5052 53.8072 52.6762 53.2596 52.1634L49.6753 48.821C50.5897 47.3422 51.297 45.7578 51.7781 44.1104H56.8435C57.6225 44.1104 58.2547 43.5209 58.2547 42.7949V40.1629H60.0892C60.8683 40.1629 61.5 39.5733 61.5 38.8473V31.9392C61.4971 31.4076 61.1519 30.93 60.6253 30.7284ZM24.8126 3.09656H37.1171V25.0836H24.8408L24.8126 3.09656ZM50.7479 41.4789H55.4465L55.4327 40.1629H42.5215C41.8778 45.1156 37.6913 49.0185 32.3801 49.6197C26.0049 50.3421 20.2097 46.1078 19.4364 40.1629H6.53955V41.4789H11.2381C11.9153 41.4642 12.5064 41.9012 12.6494 42.518C13.1415 44.572 14.0305 46.5248 15.2739 48.2814C15.6364 48.8014 15.5589 49.4868 15.0903 49.926L11.7178 53.0709L15.711 56.795L19.0835 53.6502C19.555 53.2131 20.2901 53.1409 20.8477 53.4789C22.7424 54.629 24.8466 55.4447 27.056 55.887C27.7179 56.0199 28.1866 56.5711 28.1708 57.2026V61.6763H33.8148V57.2423C33.7995 56.6108 34.2677 56.0592 34.9296 55.9263C37.1395 55.483 39.2432 54.6669 41.1384 53.5186C41.696 53.1801 42.4311 53.2528 42.9021 53.6894L46.2746 56.8342L50.3104 53.0972L46.9379 49.9524C46.4697 49.5131 46.3918 48.8277 46.7547 48.3077C47.9866 46.5404 48.8613 44.5787 49.3367 42.518C49.4792 41.9012 50.0708 41.4642 50.7479 41.4789ZM22.3149 40.1629H39.6851C38.9089 44.6394 34.3877 47.6817 29.5878 46.9579C25.8428 46.3933 22.9065 43.6552 22.301 40.1629H22.3149ZM3.30811 37.5314H58.6918V32.8338L55.9687 31.7417C55.4465 31.5365 55.1079 31.0589 55.1079 30.5314V27.8994C55.1476 18.6981 49.1406 10.411 39.9672 7.01733V26.3996C39.9672 27.1256 39.335 27.7152 38.556 27.7152H23.4296C22.6505 27.7152 22.0188 27.1256 22.0188 26.3996V7.01733C12.8607 10.4123 6.86087 18.6834 6.89195 27.8731V30.5046C6.89195 31.0326 6.55337 31.5102 6.03114 31.7154L3.30811 32.8075V37.5314Z" fill="#99FE03"/>
</svg>
